<?xml version="1.0" standalone="no"?>
<!DOCTYPE svg PUBLIC "-//W3C//DTD SVG 1.1//EN" "http://www.w3.org/Graphics/SVG/1.1/DTD/svg11.dtd" >
<svg xmlns="http://www.w3.org/2000/svg" xmlns:xlink="http://www.w3.org/1999/xlink" version="1.1" viewBox="-10 0 532 512">
   <path fill="currentColor"
d="M320 22q-11 1 -12.5 15t9.5 18l60 23v52h-188v-27h37q7 0 12 -5t5 -12t-5 -12t-12 -5h-105h-5q-7 1 -11 7t-3 12q1 7 6.5 11.5t12.5 3.5h41v27l-29 84q-12 -3 -25 -3q-45 0 -76.5 31.5t-31.5 75.5q0 45 31.5 76.5t76.5 31.5q44 0 76 -31.5t32 -76.5q0 -9 -4 -23h31
q9 -2 13 -8l91 -130h30l19 54q-42 4 -71 34.5t-29 72.5q0 45 32 76.5t76 31.5q45 0 76.5 -31.5t31.5 -76.5q0 -36 -22 -64.5t-56 -37.5l-30 -86v-63q0 -3 -2 -9v-1l-2 -2l-1 -1q-1 -2 -2 -3h-1q-1 -1 -2 -1l-2 -2l-1 -1l-12 -4l-50 -20q-1 -1 -6 -1h-3zM189 157h118l-73 104
h-35q-14 -21 -32 -33zM108 251q28 0 47.5 19.5t19.5 47.5t-19.5 48t-47.5 20t-48 -20t-20 -48t20 -47.5t48 -19.5zM404 251q28 0 48 19.5t20 47.5t-20 48t-48 20t-47.5 -20t-19.5 -48q0 -5 2 -13q5 -23 23 -38.5t42 -15.5z" />
</svg>
